<svg width="44" height="44" viewBox="0 0 44 44" fill="none" xmlns="http://www.w3.org/2000/svg">
<path fill-rule="evenodd" clip-rule="evenodd" d="M38.8371 36.161C42.0589 32.3344 44 27.3939 44 22C44 9.84974 34.1503 0 22 0C9.84974 0 0 9.84974 0 22C0 34.1503 9.84974 44 22 44C26.3478 44 30.4011 42.7388 33.8138 40.5622L31.044 37.878C29.4152 36.2996 27.189 35.5384 24.9719 35.7532C24.6025 35.8326 24.2276 35.8976 23.848 35.9474C23.8187 35.9547 23.7893 35.9623 23.76 35.97L23.7674 35.9577C23.1884 36.0303 22.5986 36.0677 22 36.0677C14.2306 36.0677 7.93231 29.7694 7.93231 22C7.93231 14.2306 14.2306 7.93231 22 7.93231C29.7694 7.93231 36.0677 14.2306 36.0677 22C36.0677 25.1742 35.0164 28.1029 33.243 30.4569L33.44 30.58L38.8371 36.161Z" fill="#00E8B5"/>
<circle cx="21.9992" cy="22.0002" r="8.8" fill="#C74AE3"/>
</svg>
